<?xml version='1.0' encoding='ASCII'?>
<svg width="3650" height="1480" preserveAspectRatio="xMinYMin slice" viewBox="-100 -320 3650 1480" version="1.1" xmlns="http://www.w3.org/2000/svg">
  <path d="M-100,-320 v1480 h3650 v-1480 Z" fill="#DBE1FF" transform="matrix(1,0,0,-1,0,840)"/>
  <path d="M50,-50 q-21,0 -35.5,14.5 q-14.5,14.5 -14.5,35.5 v660 q0,21 14.5,35.5 q14.5,14.5 35.5,14.5 q21,0 35.5,-14.5 q14.5,-14.5 14.5,-35.5 v-660 q0,-21 -14.5,-35.5 q-14.5,-14.5 -35.5,-14.5 Z" fill="#2A2A2A" transform="matrix(1,0,0,-1,-50,740)"/>
  <path d="M10,910 q-10,0 -10,10 q0,10 10,10 h80 q10,0 10,-10 q0,-10 -10,-10 h-80 Z" fill="#008AFF" transform="matrix(1,0,0,-1,100,740)"/>
  <path d="M50,390 q-21,0 -35.5,14.5 q-14.5,14.5 -14.5,35.5 q0,21 14.5,35.5 q14.5,14.5 35.5,14.5 q21,0 35.5,-14.5 q14.5,-14.5 14.5,-35.5 q0,-21 -14.5,-35.5 q-14.5,-14.5 -35.5,-14.5 Z" fill="#44003B" transform="matrix(1,0,0,-1,100,740)"/>
  <path d="M49,-50 q-21,0 -35,14.5 q-14,14.5 -14,35.5 v320 q0,21 14.5,35.5 q14.5,14.5 35.5,14.5 q21,0 35.5,-14.5 q14.5,-14.5 14.5,-35.5 v-321 q0,-21 -15,-35.5 q-15,-14.5 -36,-13.5 Z" fill="#2A2A2A" transform="matrix(1,0,0,-1,100,740)"/>
  <path d="M10,910 q-10,0 -10,10 q0,10 10,10 h80 q10,0 10,-10 q0,-10 -10,-10 h-80 Z" fill="#008AFF" transform="matrix(1,0,0,-1,250,740)"/>
  <path d="M49,-170 q-21,0 -35,14.5 q-14,14.5 -14,35.5 v320 q0,21 14.5,35.5 q14.5,14.5 35.5,14.5 q21,0 35.5,-14.5 q14.5,-14.5 14.5,-35.5 v-321 q0,-21 -15,-35.5 q-15,-14.5 -36,-13.5 Z" fill="#2A2A2A" transform="matrix(1,0,0,-1,250,740)"/>
  <path d="M35,940 q-10,0 -10,10 q0,10 10,10 h30 q10,0 10,-10 q0,-10 -10,-10 h-30 Z M35,910 q-10,0 -10,10 q0,10 10,10 h30 q10,0 10,-10 q0,-10 -10,-10 h-30 Z" fill="#008AFF" transform="matrix(1,0,0,-1,400,740)"/>
  <path d="M50,-170 q-21,0 -35.5,14.5 q-14.5,14.5 -14.5,35.5 q0,21 14.5,35.5 q14.5,14.5 35.5,14.5 q21,0 35.5,-14.5 q14.5,-14.5 14.5,-35.5 q0,-21 -14.5,-35.5 q-14.5,-14.5 -35.5,-14.5 Z M50,-280 q-21,0 -35.5,14.5 q-14.5,14.5 -14.5,35.5 q0,21 14.5,35.5 q14.5,14.5 35.5,14.5 q21,0 35.5,-14.5 q14.5,-14.5 14.5,-35.5 q0,-21 -14.5,-35.5 q-14.5,-14.5 -35.5,-14.5 Z" fill="#44003B" transform="matrix(1,0,0,-1,400,740)"/>
  <path d="M49,-50 q-21,0 -35,14.5 q-14,14.5 -14,35.5 v320 q0,21 14.5,35.5 q14.5,14.5 35.5,14.5 q21,0 35.5,-14.5 q14.5,-14.5 14.5,-35.5 v-321 q0,-21 -15,-35.5 q-15,-14.5 -36,-13.5 Z" fill="#2A2A2A" transform="matrix(1,0,0,-1,400,740)"/>
  <path d="M10,910 q-10,0 -10,10 q0,10 10,10 h80 q10,0 10,-10 q0,-10 -10,-10 h-80 Z" fill="#008AFF" transform="matrix(1,0,0,-1,550,740)"/>
  <path d="M50,270 q-21,0 -35.5,14.5 q-14.5,14.5 -14.5,35.5 q0,21 14.5,35.5 q14.5,14.5 35.5,14.5 q21,0 35.5,-14.5 q14.5,-14.5 14.5,-35.5 q0,-21 -14.5,-35.5 q-14.5,-14.5 -35.5,-14.5 Z" fill="#44003B" transform="matrix(1,0,0,-1,550,740)"/>
  <path d="M49,-50 q-21,0 -35,14.5 q-14,14.5 -14,35.5 v200 q0,21 14.5,35.5 q14.5,14.5 35.5,14.5 q21,0 35.5,-14.5 q14.5,-14.5 14.5,-35.5 v-201 q0,-21 -15,-35.5 q-15,-14.5 -36,-13.5 Z M159,-50 q-21,0 -35,14.5 q-14,14.5 -14,35.5 v50 q0,21 14.5,35.5 q14.5,14.5 35.5,14.5 q21,0 35.5,-14.5 q14.5,-14.5 14.5,-35.5 v-51 q0,-21 -15,-35.5 q-15,-14.5 -36,-13.5 Z" fill="#2A2A2A" transform="matrix(1,0,0,-1,550,740)"/>
  <path d="" fill="#1F2328" transform="matrix(1,0,0,-1,810,740)"/>
  <path d="M10,910 q-10,0 -10,10 q0,10 10,10 h80 q10,0 10,-10 q0,-10 -10,-10 h-80 Z" fill="#008AFF" transform="matrix(1,0,0,-1,860,740)"/>
  <path d="M56,-50 q-23,0 -39.5,16.5 q-16.5,16.5 -16.5,39.5 q0,23 16.5,39.5 q16.5,16.5 39.5,16.5 v-112 Z" fill="#DCBB48" transform="matrix(1,0,0,-1,860,740)"/>
  <path d="M35,940 q-10,0 -10,10 q0,10 10,10 h30 q10,0 10,-10 q0,-10 -10,-10 h-30 Z M35,910 q-10,0 -10,10 q0,10 10,10 h30 q10,0 10,-10 q0,-10 -10,-10 h-30 Z" fill="#008AFF" transform="matrix(1,0,0,-1,960,740)"/>
  <path d="M50,-170 q-21,0 -35.5,14.5 q-14.5,14.5 -14.5,35.5 q0,21 14.5,35.5 q14.5,14.5 35.5,14.5 q21,0 35.5,-14.5 q14.5,-14.5 14.5,-35.5 q0,-21 -14.5,-35.5 q-14.5,-14.5 -35.5,-14.5 Z M50,-280 q-21,0 -35.5,14.5 q-14.5,14.5 -14.5,35.5 q0,21 14.5,35.5 q14.5,14.5 35.5,14.5 q21,0 35.5,-14.5 q14.5,-14.5 14.5,-35.5 q0,-21 -14.5,-35.5 q-14.5,-14.5 -35.5,-14.5 Z" fill="#44003B" transform="matrix(1,0,0,-1,960,740)"/>
  <path d="M49,-50 q-21,0 -35,14.5 q-14,14.5 -14,35.5 v320 q0,21 14.5,35.5 q14.5,14.5 35.5,14.5 q21,0 35.5,-14.5 q14.5,-14.5 14.5,-35.5 v-321 q0,-21 -15,-35.5 q-15,-14.5 -36,-13.5 Z" fill="#2A2A2A" transform="matrix(1,0,0,-1,960,740)"/>
  <path d="M10,910 q-10,0 -10,10 q0,10 10,10 h80 q10,0 10,-10 q0,-10 -10,-10 h-80 Z" fill="#008AFF" transform="matrix(1,0,0,-1,1220,740)"/>
  <path d="M50,390 q-21,0 -35.5,14.5 q-14.5,14.5 -14.5,35.5 q0,21 14.5,35.5 q14.5,14.5 35.5,14.5 q21,0 35.5,-14.5 q14.5,-14.5 14.5,-35.5 q0,-21 -14.5,-35.5 q-14.5,-14.5 -35.5,-14.5 Z M160,390 q-21,0 -35.5,14.5 q-14.5,14.5 -14.5,35.5 q0,21 14.5,35.5 q14.5,14.5 35.5,14.5 q21,0 35.5,-14.5 q14.5,-14.5 14.5,-35.5 q0,-21 -14.5,-35.5 q-14.5,-14.5 -35.5,-14.5 Z M270,390 q-21,0 -35.5,14.5 q-14.5,14.5 -14.5,35.5 q0,21 14.5,35.5 q14.5,14.5 35.5,14.5 q21,0 35.5,-14.5 q14.5,-14.5 14.5,-35.5 q0,-21 -14.5,-35.5 q-14.5,-14.5 -35.5,-14.5 Z" fill="#44003B" transform="matrix(1,0,0,-1,1110,740)"/>
  <path d="M49,-50 q-21,0 -35,14.5 q-14,14.5 -14,35.5 v320 q0,21 14.5,35.5 q14.5,14.5 35.5,14.5 q21,0 35.5,-14.5 q14.5,-14.5 14.5,-35.5 v-321 q0,-21 -15,-35.5 q-15,-14.5 -36,-13.5 Z M269,-50 q-21,0 -35,14.5 q-14,14.5 -14,35.5 v320 q0,21 14.5,35.5 q14.5,14.5 35.5,14.5 q21,0 35.5,-14.5 q14.5,-14.5 14.5,-35.5 v-321 q0,-21 -15,-35.5 q-15,-14.5 -36,-13.5 Z M159,-50 q-21,0 -35,14.5 q-14,14.5 -14,35.5 v320 q0,21 14.5,35.5 q14.5,14.5 35.5,14.5 q21,0 35.5,-14.5 q14.5,-14.5 14.5,-35.5 v-321 q0,-21 -15,-35.5 q-15,-14.5 -36,-13.5 Z" fill="#2A2A2A" transform="matrix(1,0,0,-1,1110,740)"/>
  <path d="" fill="#1F2328" transform="matrix(1,0,0,-1,1480,740)"/>
  <path d="M50,-50 q-21,0 -35.5,14.5 q-14.5,14.5 -14.5,35.5 v660 q0,21 14.5,35.5 q14.5,14.5 35.5,14.5 q21,0 35.5,-14.5 q14.5,-14.5 14.5,-35.5 v-660 q0,-21 -14.5,-35.5 q-14.5,-14.5 -35.5,-14.5 Z" fill="#2A2A2A" transform="matrix(1,0,0,-1,1530,740)"/>
  <path d="M10,910 q-10,0 -10,10 q0,10 10,10 h80 q10,0 10,-10 q0,-10 -10,-10 h-80 Z" fill="#008AFF" transform="matrix(1,0,0,-1,1680,740)"/>
  <path d="M49,-170 q-21,0 -35,14.5 q-14,14.5 -14,35.5 v780 q0,21 14.5,35.5 q14.5,14.5 35.5,14.5 q21,0 35.5,-14.5 q14.5,-14.5 14.5,-35.5 v-781 q0,-21 -15,-35.5 q-15,-14.5 -36,-13.5 Z" fill="#2A2A2A" transform="matrix(1,0,0,-1,1680,740)"/>
  <path d="" fill="#1F2328" transform="matrix(1,0,0,-1,1830,740)"/>
  <path d="M10,910 q-10,0 -10,10 q0,10 10,10 h80 q10,0 10,-10 q0,-10 -10,-10 h-80 Z" fill="#008AFF" transform="matrix(1,0,0,-1,1935,740)"/>
  <path d="M49,-50 q-21,0 -35,14.5 q-14,14.5 -14,35.5 v200 q0,21 14.5,35.5 q14.5,14.5 35.5,14.5 q21,0 35.5,-14.5 q14.5,-14.5 14.5,-35.5 v-201 q0,-21 -15,-35.5 q-15,-14.5 -36,-13.5 Z M159,-170 q-21,0 -35,14.5 q-14,14.5 -14,35.5 v320 q0,21 14.5,35.5 q14.5,14.5 35.5,14.5 q21,0 35.5,-14.5 q14.5,-14.5 14.5,-35.5 v-321 q0,-21 -15,-35.5 q-15,-14.5 -36,-13.5 Z" fill="#575757" transform="matrix(1,0,0,-1,1880,740)"/>
  <path d="" fill="#1F2328" transform="matrix(1,0,0,-1,2140,740)"/>
  <path d="M50,-50 q-21,0 -35.5,14.5 q-14.5,14.5 -14.5,35.5 v660 q0,21 14.5,35.5 q14.5,14.5 35.5,14.5 q21,0 35.5,-14.5 q14.5,-14.5 14.5,-35.5 v-660 q0,-21 -14.5,-35.5 q-14.5,-14.5 -35.5,-14.5 Z" fill="#2A2A2A" transform="matrix(1,0,0,-1,2190,740)"/>
  <path d="M10,910 q-10,0 -10,10 q0,10 10,10 h80 q10,0 10,-10 q0,-10 -10,-10 h-80 Z" fill="#008AFF" transform="matrix(1,0,0,-1,2340,740)"/>
  <path d="M50,390 q-21,0 -35.5,14.5 q-14.5,14.5 -14.5,35.5 q0,21 14.5,35.5 q14.5,14.5 35.5,14.5 q21,0 35.5,-14.5 q14.5,-14.5 14.5,-35.5 q0,-21 -14.5,-35.5 q-14.5,-14.5 -35.5,-14.5 Z" fill="#44003B" transform="matrix(1,0,0,-1,2340,740)"/>
  <path d="M49,-50 q-21,0 -35,14.5 q-14,14.5 -14,35.5 v320 q0,21 14.5,35.5 q14.5,14.5 35.5,14.5 q21,0 35.5,-14.5 q14.5,-14.5 14.5,-35.5 v-321 q0,-21 -15,-35.5 q-15,-14.5 -36,-13.5 Z" fill="#2A2A2A" transform="matrix(1,0,0,-1,2340,740)"/>
  <path d="M10,910 q-10,0 -10,10 q0,10 10,10 h80 q10,0 10,-10 q0,-10 -10,-10 h-80 Z" fill="#008AFF" transform="matrix(1,0,0,-1,2490,740)"/>
  <path d="M50,-50 q-21,0 -35.5,14.5 q-14.5,14.5 -14.5,35.5 v660 q0,21 14.5,35.5 q14.5,14.5 35.5,14.5 q21,0 35.5,-14.5 q14.5,-14.5 14.5,-35.5 v-660 q0,-21 -14.5,-35.5 q-14.5,-14.5 -35.5,-14.5 Z M56,730 q-23,0 -39.5,16.5 q-16.5,16.5 -16.5,39.5 q0,23 16.5,39.5 q16.5,16.5 39.5,16.5 v-112 Z" fill="#008AFF" transform="matrix(1,0,0,-1,2490,740)"/>
  <path d="M56,730 q-23,0 -39.5,16.5 q-16.5,16.5 -16.5,39.5 q0,23 16.5,39.5 q16.5,16.5 39.5,16.5 v-112 Z" fill="#DCBB48" transform="matrix(1,0,0,-1,2490,740)"/>
  <path d="M50,-50 q-21,0 -35.5,14.5 q-14.5,14.5 -14.5,35.5 v660 q0,21 14.5,35.5 q14.5,14.5 35.5,14.5 q21,0 35.5,-14.5 q14.5,-14.5 14.5,-35.5 v-660 q0,-21 -14.5,-35.5 q-14.5,-14.5 -35.5,-14.5 Z" fill="#2A2A2A" transform="matrix(1,0,0,-1,2490,740)"/>
  <path d="" fill="#1F2328" transform="matrix(1,0,0,-1,2640,740)"/>
  <path d="M10,910 q-10,0 -10,10 q0,10 10,10 h80 q10,0 10,-10 q0,-10 -10,-10 h-80 Z" fill="#008AFF" transform="matrix(1,0,0,-1,2745,740)"/>
  <path d="M49,-50 q-21,0 -35,14.5 q-14,14.5 -14,35.5 v200 q0,21 14.5,35.5 q14.5,14.5 35.5,14.5 q21,0 35.5,-14.5 q14.5,-14.5 14.5,-35.5 v-201 q0,-21 -15,-35.5 q-15,-14.5 -36,-13.5 Z M159,-170 q-21,0 -35,14.5 q-14,14.5 -14,35.5 v320 q0,21 14.5,35.5 q14.5,14.5 35.5,14.5 q21,0 35.5,-14.5 q14.5,-14.5 14.5,-35.5 v-321 q0,-21 -15,-35.5 q-15,-14.5 -36,-13.5 Z" fill="#575757" transform="matrix(1,0,0,-1,2690,740)"/>
  <path d="" fill="#1F2328" transform="matrix(1,0,0,-1,2950,740)"/>
  <path d="M10,-320 q-10,0 -10,10 q0,10 10,10 h80 q10,0 10,-10 q0,-10 -10,-10 h-80 Z" fill="#008AFF" transform="matrix(1,0,0,-1,3000,740)"/>
  <path d="M50,500 q-21,0 -35.5,14.5 q-14.5,14.5 -14.5,35.5 q0,21 14.5,35.5 q14.5,14.5 35.5,14.5 q21,0 35.5,-14.5 q14.5,-14.5 14.5,-35.5 q0,-21 -14.5,-35.5 q-14.5,-14.5 -35.5,-14.5 Z M50,390 q-21,0 -35.5,14.5 q-14.5,14.5 -14.5,35.5 q0,21 14.5,35.5 q14.5,14.5 35.5,14.5 q21,0 35.5,-14.5 q14.5,-14.5 14.5,-35.5 q0,-21 -14.5,-35.5 q-14.5,-14.5 -35.5,-14.5 Z" fill="#44003B" transform="matrix(1,0,0,-1,3000,740)"/>
  <path d="M49,-50 q-21,0 -35,14.5 q-14,14.5 -14,35.5 v320 q0,21 14.5,35.5 q14.5,14.5 35.5,14.5 q21,0 35.5,-14.5 q14.5,-14.5 14.5,-35.5 v-321 q0,-21 -15,-35.5 q-15,-14.5 -36,-13.5 Z" fill="#2A2A2A" transform="matrix(1,0,0,-1,3000,740)"/>
  <path d="M35,940 q-10,0 -10,10 q0,10 10,10 h30 q10,0 10,-10 q0,-10 -10,-10 h-30 Z M35,910 q-10,0 -10,10 q0,10 10,10 h30 q10,0 10,-10 q0,-10 -10,-10 h-30 Z" fill="#008AFF" transform="matrix(1,0,0,-1,3150,740)"/>
  <path d="M50,390 q-21,0 -35.5,14.5 q-14.5,14.5 -14.5,35.5 q0,21 14.5,35.5 q14.5,14.5 35.5,14.5 q21,0 35.5,-14.5 q14.5,-14.5 14.5,-35.5 q0,-21 -14.5,-35.5 q-14.5,-14.5 -35.5,-14.5 Z" fill="#44003B" transform="matrix(1,0,0,-1,3150,740)"/>
  <path d="M49,-50 q-21,0 -35,14.5 q-14,14.5 -14,35.5 v320 q0,21 14.5,35.5 q14.5,14.5 35.5,14.5 q21,0 35.5,-14.5 q14.5,-14.5 14.5,-35.5 v-321 q0,-21 -15,-35.5 q-15,-14.5 -36,-13.5 Z" fill="#2A2A2A" transform="matrix(1,0,0,-1,3150,740)"/>
  <path d="M10,910 q-10,0 -10,10 q0,10 10,10 h80 q10,0 10,-10 q0,-10 -10,-10 h-80 Z" fill="#008AFF" transform="matrix(1,0,0,-1,3300,740)"/>
  <path d="M50,-50 q-21,0 -35.5,14.5 q-14.5,14.5 -14.5,35.5 v660 q0,21 14.5,35.5 q14.5,14.5 35.5,14.5 q21,0 35.5,-14.5 q14.5,-14.5 14.5,-35.5 v-660 q0,-21 -14.5,-35.5 q-14.5,-14.5 -35.5,-14.5 Z M56,730 q-23,0 -39.5,16.5 q-16.5,16.5 -16.5,39.5 q0,23 16.5,39.5 q16.5,16.5 39.5,16.5 v-112 Z" fill="#008AFF" transform="matrix(1,0,0,-1,3300,740)"/>
  <path d="M56,730 q-23,0 -39.5,16.5 q-16.5,16.5 -16.5,39.5 q0,23 16.5,39.5 q16.5,16.5 39.5,16.5 v-112 Z" fill="#DCBB48" transform="matrix(1,0,0,-1,3300,740)"/>
  <path d="M50,-50 q-21,0 -35.5,14.5 q-14.5,14.5 -14.5,35.5 v660 q0,21 14.5,35.5 q14.5,14.5 35.5,14.5 q21,0 35.5,-14.5 q14.5,-14.5 14.5,-35.5 v-660 q0,-21 -14.5,-35.5 q-14.5,-14.5 -35.5,-14.5 Z" fill="#2A2A2A" transform="matrix(1,0,0,-1,3300,740)"/>
</svg>
