<?xml version="1.0" encoding="UTF-8"?>
<svg version="1.1" viewBox="0 0 340.26 140.21" xmlns="http://www.w3.org/2000/svg">
 <rect x="-14.789" y="-18.939" width="356.54" height="169.17" fill="#dbe1ff" style="paint-order:markers fill stroke"/>
 <path d="m330.26 100.16v-61.986c0-2.6297-2.0662-4.6959-4.6959-4.6959s-4.6959 2.0662-4.6959 4.6959v61.986c0 2.6297 2.0662 4.6959 4.6959 4.6959s4.6959-2.0662 4.6959-4.6959z" fill="#2a2a2a"/>
 <path d="m326.13 31.601v-10.519c-2.9114 0-5.2594 2.348-5.2594 5.2594s2.348 5.2594 5.2594 5.2594z" fill="#dcbb48"/>
 <path d="m329.32 12.818h-7.5134c-0.5635 0-0.9392 0.3756-0.9392 0.9391 0 0.5636 0.3757 0.9392 0.9392 0.9392h7.5134c0.5635 0 0.9392-0.3756 0.9392-0.9392 0-0.5635-0.3757-0.9391-0.9392-0.9391z" fill="#008aff"/>
 <path d="m311.48 63.533c2.6296 0 4.6958-2.0662 4.6958-4.6959s-2.0662-4.6959-4.6958-4.6959c-2.6297 0-4.6959 2.0662-4.6959 4.6959s2.0662 4.6959 4.6959 4.6959z" fill="#44003b"/>
 <path d="m316.17 100.25v-30.148c0-2.6297-2.0662-4.6959-4.6958-4.6959-2.6297 0-4.6959 2.0662-4.6959 4.6959v30.054c0 2.6297 1.9722 4.6959 4.6019 4.6959 2.6297 0.0939 4.7898-1.9723 4.7898-4.602z" fill="#2a2a2a"/>
 <path d="m312.88 12.818h-2.8175c-0.5635 0-0.9392 0.3756-0.9392 0.9391 0 0.5636 0.3757 0.9392 0.9392 0.9392h2.8175c0.5635 0 0.9392-0.3756 0.9392-0.9392 0-0.5635-0.3757-0.9391-0.9392-0.9391zm-3.7567-1.8784c0 0.5635 0.3757 0.9392 0.9392 0.9392h2.8175c0.5635 0 0.9392-0.3757 0.9392-0.9392s-0.3757-0.9392-0.9392-0.9392h-2.8175c-0.5635 0-0.9392 0.3757-0.9392 0.9392z" fill="#008aff"/>
 <path d="m297.39 63.533c2.6297 0 4.6959-2.0662 4.6959-4.6959s-2.0662-4.6959-4.6959-4.6959-4.6959 2.0662-4.6959 4.6959 2.0662 4.6959 4.6959 4.6959zm-4.6959-15.027c0 2.6296 2.0662 4.6958 4.6959 4.6958s4.6959-2.0662 4.6959-4.6958c0-2.6297-2.0662-4.6959-4.6959-4.6959s-4.6959 2.0662-4.6959 4.6959z" fill="#44003b"/>
 <path d="m302.08 100.25v-30.148c0-2.6297-2.0662-4.6959-4.6959-4.6959s-4.6959 2.0662-4.6959 4.6959v30.054c0 2.6297 1.9723 4.6959 4.602 4.6959 2.6297 0.0939 4.7898-1.9723 4.7898-4.602z" fill="#2a2a2a"/>
 <path d="m301.14 128.34h-7.5134c-0.5635 0-0.9392 0.3757-0.9392 0.9392s0.3757 0.9391 0.9392 0.9391h7.5134c0.5635 0 0.9392-0.3756 0.9392-0.9391s-0.3757-0.9392-0.9392-0.9392z" fill="#008aff"/>
 <path d="m272.97 100.25v-18.877c0-2.6297-2.0662-4.6959-4.6959-4.6959s-4.6959 2.0662-4.6959 4.6959v18.784c0 2.6297 1.9723 4.6959 4.602 4.6959 2.6296 0.0939 4.7898-1.9723 4.7898-4.602zm0.9391 11.176c0 2.6297 1.9723 4.6959 4.602 4.6959 2.6297 0.0939 4.7898-1.9723 4.7898-4.602v-30.148c0-2.6297-2.0662-4.6959-4.6959-4.6959s-4.6959 2.0662-4.6959 4.6959z" fill="#575757"/>
 <path d="m277.2 12.818h-7.5134c-0.5635 0-0.9391 0.3756-0.9391 0.9391 0 0.5636 0.3756 0.9392 0.9391 0.9392h7.5134c0.5635 0 0.9392-0.3756 0.9392-0.9392 0-0.5635-0.3757-0.9391-0.9392-0.9391z" fill="#008aff"/>
 <path d="m254.19 100.16v-61.986c0-2.6297-2.0661-4.6959-4.6958-4.6959s-4.6959 2.0662-4.6959 4.6959v61.986c0 2.6297 2.0662 4.6959 4.6959 4.6959s4.6958-2.0662 4.6958-4.6959z" fill="#2a2a2a"/>
 <path d="m250.05 31.601v-10.519c-2.9115 0-5.2594 2.348-5.2594 5.2594s2.3479 5.2594 5.2594 5.2594z" fill="#dcbb48"/>
 <path d="m253.25 12.818h-7.5134c-0.5635 0-0.9392 0.3756-0.9392 0.9391 0 0.5636 0.3757 0.9392 0.9392 0.9392h7.5134c0.5635 0 0.9391-0.3756 0.9391-0.9392 0-0.5635-0.3756-0.9391-0.9391-0.9391z" fill="#008aff"/>
 <path d="m235.4 63.533c2.6297 0 4.6959-2.0662 4.6959-4.6959s-2.0662-4.6959-4.6959-4.6959-4.6959 2.0662-4.6959 4.6959 2.0662 4.6959 4.6959 4.6959z" fill="#44003b"/>
 <path d="m240.1 100.25v-30.148c0-2.6297-2.0662-4.6959-4.6959-4.6959s-4.6959 2.0662-4.6959 4.6959v30.054c0 2.6297 1.9723 4.6959 4.602 4.6959 2.6297 0.0939 4.7898-1.9723 4.7898-4.602z" fill="#2a2a2a"/>
 <path d="m239.16 12.818h-7.5134c-0.5635 0-0.9392 0.3756-0.9392 0.9391 0 0.5636 0.3757 0.9392 0.9392 0.9392h7.5134c0.5635 0 0.9392-0.3756 0.9392-0.9392 0-0.5635-0.3757-0.9391-0.9392-0.9391z" fill="#008aff"/>
 <path d="m226.01 100.16v-61.986c0-2.6297-2.0662-4.6959-4.6959-4.6959s-4.6959 2.0662-4.6959 4.6959v61.986c0 2.6297 2.0662 4.6959 4.6959 4.6959s4.6959-2.0662 4.6959-4.6959z" fill="#2a2a2a"/>
 <path d="m196.9 100.25v-18.877c0-2.6297-2.0662-4.6959-4.6959-4.6959s-4.6958 2.0662-4.6958 4.6959v18.784c0 2.6297 1.9722 4.6959 4.6019 4.6959 2.6297 0.0939 4.7898-1.9723 4.7898-4.602zm0.9392 11.176c0 2.6297 1.9723 4.6959 4.602 4.6959 2.6296 0.0939 4.7898-1.9723 4.7898-4.602v-30.148c0-2.6297-2.0662-4.6959-4.6959-4.6959s-4.6959 2.0662-4.6959 4.6959z" fill="#575757"/>
 <path d="m201.12 12.818h-7.5134c-0.5635 0-0.9392 0.3756-0.9392 0.9391 0 0.5636 0.3757 0.9392 0.9392 0.9392h7.5134c0.5635 0 0.9392-0.3756 0.9392-0.9392 0-0.5635-0.3757-0.9391-0.9392-0.9391z" fill="#008aff"/>
 <path d="m178.11 100.16v-61.986c0-2.6297-2.0662-4.6959-4.6959-4.6959s-4.6959 2.0662-4.6959 4.6959v61.986c0 2.6297 2.0662 4.6959 4.6959 4.6959s4.6959-2.0662 4.6959-4.6959zm-19.723 0c0 2.6297 2.0662 4.6959 4.6959 4.6959s4.6959-2.0662 4.6959-4.6959v-61.986c0-2.6297-2.0662-4.6959-4.6959-4.6959s-4.6959 2.0662-4.6959 4.6959z" fill="#2a2a2a"/>
 <path d="m177.17 12.818h-7.5134c-0.5635 0-0.9392 0.3756-0.9392 0.9391 0 0.5636 0.3757 0.9392 0.9392 0.9392h7.5134c0.5635 0 0.9392-0.3756 0.9392-0.9392 0-0.5635-0.3757-0.9391-0.9392-0.9391z" fill="#008aff"/>
 <path d="m123.64 63.533c2.6297 0 4.6959-2.0662 4.6959-4.6959s-2.0662-4.6959-4.6959-4.6959-4.6959 2.0662-4.6959 4.6959 2.0662 4.6959 4.6959 4.6959zm5.6351-4.6959c0 2.6297 2.0662 4.6959 4.6958 4.6959 2.6297 0 4.6959-2.0662 4.6959-4.6959s-2.0662-4.6959-4.6959-4.6959c-2.6296 0-4.6958 2.0662-4.6958 4.6959zm10.331 0c0 2.6297 2.0662 4.6959 4.6959 4.6959s4.6959-2.0662 4.6959-4.6959-2.0662-4.6959-4.6959-4.6959-4.6959 2.0662-4.6959 4.6959z" fill="#44003b"/>
 <path d="m128.34 100.25v-30.148c0-2.6297-2.0662-4.6959-4.6959-4.6959s-4.6959 2.0662-4.6959 4.6959v30.054c0 2.6297 1.9723 4.6959 4.602 4.6959 2.6297 0.0939 4.7898-1.9723 4.7898-4.602zm0.9392-0.0939c0 2.6297 1.9722 4.6959 4.6019 4.6959 2.6297 0.0939 4.7898-1.9723 4.7898-4.602v-30.148c0-2.6297-2.0662-4.6959-4.6959-4.6959-2.6296 0-4.6958 2.0662-4.6958 4.6959zm10.331 0c0 2.6297 1.9723 4.6959 4.602 4.6959 2.6297 0.0939 4.7898-1.9723 4.7898-4.602v-30.148c0-2.6297-2.0662-4.6959-4.6959-4.6959s-4.6959 2.0662-4.6959 4.6959z" fill="#2a2a2a"/>
 <path d="m137.73 12.818h-7.5135c-0.5635 0-0.9391 0.3756-0.9391 0.9391 0 0.5636 0.3756 0.9392 0.9391 0.9392h7.5135c0.5635 0 0.9391-0.3756 0.9391-0.9392 0-0.5635-0.3756-0.9391-0.9391-0.9391z" fill="#008aff"/>
 <path d="m109.55 126.46c2.6297 0 4.6959-2.0662 4.6959-4.6958 0-2.6297-2.0662-4.6959-4.6959-4.6959s-4.6959 2.0662-4.6959 4.6959c0 2.6296 2.0662 4.6958 4.6959 4.6958zm-4.6959-15.027c0 2.6297 2.0662 4.6959 4.6959 4.6959s4.6959-2.0662 4.6959-4.6959-2.0662-4.6959-4.6959-4.6959-4.6959 2.0662-4.6959 4.6959z" fill="#44003b"/>
 <path d="m114.25 100.25v-30.148c0-2.6297-2.0662-4.6959-4.6959-4.6959s-4.6959 2.0662-4.6959 4.6959v30.054c0 2.6297 1.9723 4.6959 4.602 4.6959 2.6297 0.0939 4.7898-1.9723 4.7898-4.602z" fill="#2a2a2a"/>
 <path d="m110.96 12.818h-2.8175c-0.5635 0-0.9392 0.3756-0.9392 0.9391 0 0.5636 0.3757 0.9392 0.9392 0.9392h2.8175c0.5635 0 0.9392-0.3756 0.9392-0.9392 0-0.5635-0.3757-0.9391-0.9392-0.9391zm-3.7567-1.8784c0 0.5635 0.3757 0.9392 0.9392 0.9392h2.8175c0.5635 0 0.9392-0.3757 0.9392-0.9392s-0.3757-0.9392-0.9392-0.9392h-2.8175c-0.5635 0-0.9392 0.3757-0.9392 0.9392z" fill="#008aff"/>
 <path d="m100.72 104.86v-10.519c-2.9114 0-5.2594 2.348-5.2594 5.2594 0 2.9115 2.348 5.2594 5.2594 5.2594z" fill="#dcbb48"/>
 <path d="m103.92 12.818h-7.5134c-0.5635 0-0.9392 0.3756-0.9392 0.9391 0 0.5636 0.3757 0.9392 0.9392 0.9392h7.5134c0.5635 0 0.9392-0.3756 0.9392-0.9392 0-0.5635-0.3757-0.9391-0.9392-0.9391z" fill="#008aff"/>
 <path d="m71.046 72.925c2.6297 0 4.6959-2.0662 4.6959-4.6959s-2.0662-4.6958-4.6959-4.6958-4.6959 2.0661-4.6959 4.6958 2.0662 4.6959 4.6959 4.6959z" fill="#44003b"/>
 <path d="m86.073 100.25v-9.4856c0-2.6297-2.0662-4.6959-4.6959-4.6959s-4.6959 2.0662-4.6959 4.6959v9.3917c0 2.6297 1.9723 4.6959 4.602 4.6959 2.6297 0.0939 4.7898-1.9723 4.7898-4.602zm-19.723-0.0939c0 2.6297 1.9723 4.6959 4.602 4.6959 2.6296 0.0939 4.7898-1.9723 4.7898-4.602v-20.756c0-2.6296-2.0662-4.6958-4.6959-4.6958s-4.6959 2.0662-4.6959 4.6958z" fill="#2a2a2a"/>
 <path d="m74.803 12.818h-7.5134c-0.5635 0-0.9392 0.3756-0.9392 0.9391 0 0.5636 0.3757 0.9392 0.9392 0.9392h7.5134c0.5635 0 0.9392-0.3756 0.9392-0.9392 0-0.5635-0.3757-0.9391-0.9392-0.9391z" fill="#008aff"/>
 <path d="m56.959 126.46c2.6297 0 4.6959-2.0662 4.6959-4.6958 0-2.6297-2.0662-4.6959-4.6959-4.6959s-4.6958 2.0662-4.6958 4.6959c0 2.6296 2.0661 4.6958 4.6958 4.6958zm-4.6958-15.027c0 2.6297 2.0661 4.6959 4.6958 4.6959s4.6959-2.0662 4.6959-4.6959-2.0662-4.6959-4.6959-4.6959-4.6958 2.0662-4.6958 4.6959z" fill="#44003b"/>
 <path d="m61.655 100.25v-30.148c0-2.6297-2.0662-4.6959-4.6959-4.6959s-4.6958 2.0662-4.6958 4.6959v30.054c0 2.6297 1.9722 4.6959 4.6019 4.6959 2.6297 0.0939 4.7898-1.9723 4.7898-4.602z" fill="#2a2a2a"/>
 <path d="m58.368 12.818h-2.8175c-0.5635 0-0.9392 0.3756-0.9392 0.9391 0 0.5636 0.3757 0.9392 0.9392 0.9392h2.8175c0.5635 0 0.9392-0.3756 0.9392-0.9392 0-0.5635-0.3757-0.9391-0.9392-0.9391zm-3.7567-1.8784c0 0.5635 0.3757 0.9392 0.9392 0.9392h2.8175c0.5635 0 0.9392-0.3757 0.9392-0.9392s-0.3757-0.9392-0.9392-0.9392h-2.8175c-0.5635 0-0.9392 0.3757-0.9392 0.9392z" fill="#008aff"/>
 <path d="m47.567 111.52v-30.148c0-2.6297-2.0662-4.6959-4.6959-4.6959s-4.6959 2.0662-4.6959 4.6959v30.054c0 2.6297 1.9723 4.6959 4.602 4.6959 2.6297 0.0939 4.7898-1.9723 4.7898-4.602z" fill="#2a2a2a"/>
 <path d="m46.628 12.818h-7.5134c-0.5635 0-0.9392 0.3756-0.9392 0.9391 0 0.5636 0.3757 0.9392 0.9392 0.9392h7.5134c0.5635 0 0.9392-0.3756 0.9392-0.9392 0-0.5635-0.3757-0.9391-0.9392-0.9391z" fill="#008aff"/>
 <path d="m28.784 63.533c2.6297 0 4.6958-2.0662 4.6958-4.6959s-2.0661-4.6959-4.6958-4.6959-4.6959 2.0662-4.6959 4.6959 2.0662 4.6959 4.6959 4.6959z" fill="#44003b"/>
 <path d="m33.479 100.25v-30.148c0-2.6297-2.0661-4.6959-4.6958-4.6959s-4.6959 2.0662-4.6959 4.6959v30.054c0 2.6297 1.9723 4.6959 4.602 4.6959 2.6296 0.0939 4.7897-1.9723 4.7897-4.602z" fill="#2a2a2a"/>
 <path d="m32.54 12.818h-7.5134c-0.5635 0-0.9392 0.3756-0.9392 0.9391 0 0.5636 0.3757 0.9392 0.9392 0.9392h7.5134c0.5635 0 0.9391-0.3756 0.9391-0.9392 0-0.5635-0.3756-0.9391-0.9391-0.9391z" fill="#008aff"/>
 <path d="m19.392 100.16v-61.986c0-2.6297-2.0662-4.6959-4.6959-4.6959s-4.6958 2.0662-4.6958 4.6959v61.986c0 2.6297 2.0661 4.6959 4.6958 4.6959s4.6959-2.0662 4.6959-4.6959z" fill="#2a2a2a"/>
 <g stroke-width="93.918">
  <path d="m288 100.16"/>
  <path d="m258.88 100.16"/>
  <path d="m211.92 100.16"/>
  <path d="m182.81 100.16"/>
  <path d="m153.69 100.16"/>
  <path d="m90.769 100.16"/>
 </g>
</svg>
