<?xml version="1.0" encoding="UTF-8" standalone="no"?>
<svg
   version="1.1"
   viewBox="0 0 400 400"
   id="svg237"
   sodipodi:docname="anti.svg"
   width="400"
   height="400"
   inkscape:version="1.1 (c4e8f9e, 2021-05-24)"
   inkscape:export-filename="/Users/khaled/Development/anti/anti.png"
   inkscape:export-xdpi="500"
   inkscape:export-ydpi="500"
   xmlns:inkscape="http://www.inkscape.org/namespaces/inkscape"
   xmlns:sodipodi="http://sodipodi.sourceforge.net/DTD/sodipodi-0.dtd"
   xmlns="http://www.w3.org/2000/svg"
   xmlns:svg="http://www.w3.org/2000/svg">
  <defs
     id="defs241" />
  <sodipodi:namedview
     id="namedview239"
     pagecolor="#dbe1ff"
     bordercolor="#cccccc"
     borderopacity="1"
     inkscape:pageshadow="0"
     inkscape:pageopacity="1"
     inkscape:pagecheckerboard="0"
     showgrid="false"
     inkscape:current-layer="svg237" />
  <g
     transform="matrix(0.93221,0,0,0.93221,41.402973,134.64336)"
     id="g235">
    <path
       d="M 330.26,100.16 V 38.174 c 0,-2.6297 -2.0662,-4.6959 -4.6959,-4.6959 -2.6297,0 -4.6959,2.0662 -4.6959,4.6959 v 61.986 c 0,2.6297 2.0662,4.6959 4.6959,4.6959 2.6297,0 4.6959,-2.0662 4.6959,-4.6959 z"
       fill="#2a2a2a"
       id="path137" />
    <path
       d="M 326.13,31.601 V 21.082 c -2.9114,0 -5.2594,2.348 -5.2594,5.2594 0,2.9114 2.348,5.2594 5.2594,5.2594 z"
       fill="#dcbb48"
       id="path139" />
    <path
       d="m 329.32,12.818 h -7.5134 c -0.5635,0 -0.9392,0.3756 -0.9392,0.9391 0,0.5636 0.3757,0.9392 0.9392,0.9392 h 7.5134 c 0.5635,0 0.9392,-0.3756 0.9392,-0.9392 0,-0.5635 -0.3757,-0.9391 -0.9392,-0.9391 z"
       fill="#008aff"
       id="path141" />
    <path
       d="m 311.48,63.533 c 2.6296,0 4.6958,-2.0662 4.6958,-4.6959 0,-2.6297 -2.0662,-4.6959 -4.6958,-4.6959 -2.6297,0 -4.6959,2.0662 -4.6959,4.6959 0,2.6297 2.0662,4.6959 4.6959,4.6959 z"
       fill="#44003b"
       id="path143" />
    <path
       d="M 316.17,100.25 V 70.102 c 0,-2.6297 -2.0662,-4.6959 -4.6958,-4.6959 -2.6297,0 -4.6959,2.0662 -4.6959,4.6959 v 30.054 c 0,2.6297 1.9722,4.6959 4.6019,4.6959 2.6297,0.0939 4.7898,-1.9723 4.7898,-4.602 z"
       fill="#2a2a2a"
       id="path145" />
    <path
       d="m 312.88,12.818 h -2.8175 c -0.5635,0 -0.9392,0.3756 -0.9392,0.9391 0,0.5636 0.3757,0.9392 0.9392,0.9392 h 2.8175 c 0.5635,0 0.9392,-0.3756 0.9392,-0.9392 0,-0.5635 -0.3757,-0.9391 -0.9392,-0.9391 z m -3.7567,-1.8784 c 0,0.5635 0.3757,0.9392 0.9392,0.9392 h 2.8175 c 0.5635,0 0.9392,-0.3757 0.9392,-0.9392 0,-0.5635 -0.3757,-0.9392 -0.9392,-0.9392 h -2.8175 c -0.5635,0 -0.9392,0.3757 -0.9392,0.9392 z"
       fill="#008aff"
       id="path147" />
    <path
       d="m 297.39,63.533 c 2.6297,0 4.6959,-2.0662 4.6959,-4.6959 0,-2.6297 -2.0662,-4.6959 -4.6959,-4.6959 -2.6297,0 -4.6959,2.0662 -4.6959,4.6959 0,2.6297 2.0662,4.6959 4.6959,4.6959 z m -4.6959,-15.027 c 0,2.6296 2.0662,4.6958 4.6959,4.6958 2.6297,0 4.6959,-2.0662 4.6959,-4.6958 0,-2.6297 -2.0662,-4.6959 -4.6959,-4.6959 -2.6297,0 -4.6959,2.0662 -4.6959,4.6959 z"
       fill="#44003b"
       id="path149" />
    <path
       d="M 302.08,100.25 V 70.102 c 0,-2.6297 -2.0662,-4.6959 -4.6959,-4.6959 -2.6297,0 -4.6959,2.0662 -4.6959,4.6959 v 30.054 c 0,2.6297 1.9723,4.6959 4.602,4.6959 2.6297,0.0939 4.7898,-1.9723 4.7898,-4.602 z"
       fill="#2a2a2a"
       id="path151" />
    <path
       d="m 301.14,128.34 h -7.5134 c -0.5635,0 -0.9392,0.3757 -0.9392,0.9392 0,0.5635 0.3757,0.9391 0.9392,0.9391 h 7.5134 c 0.5635,0 0.9392,-0.3756 0.9392,-0.9391 0,-0.5635 -0.3757,-0.9392 -0.9392,-0.9392 z"
       fill="#008aff"
       id="path153" />
    <path
       d="M 272.97,100.25 V 81.373 c 0,-2.6297 -2.0662,-4.6959 -4.6959,-4.6959 -2.6297,0 -4.6959,2.0662 -4.6959,4.6959 v 18.784 c 0,2.6297 1.9723,4.6959 4.602,4.6959 2.6296,0.0939 4.7898,-1.9723 4.7898,-4.602 z m 0.9391,11.176 c 0,2.6297 1.9723,4.6959 4.602,4.6959 2.6297,0.0939 4.7898,-1.9723 4.7898,-4.602 v -30.148 c 0,-2.6297 -2.0662,-4.6959 -4.6959,-4.6959 -2.6297,0 -4.6959,2.0662 -4.6959,4.6959 z"
       fill="#575757"
       id="path155" />
    <path
       d="m 277.2,12.818 h -7.5134 c -0.5635,0 -0.9391,0.3756 -0.9391,0.9391 0,0.5636 0.3756,0.9392 0.9391,0.9392 H 277.2 c 0.5635,0 0.9392,-0.3756 0.9392,-0.9392 0,-0.5635 -0.3757,-0.9391 -0.9392,-0.9391 z"
       fill="#008aff"
       id="path157" />
    <path
       d="M 254.19,100.16 V 38.174 c 0,-2.6297 -2.0661,-4.6959 -4.6958,-4.6959 -2.6297,0 -4.6959,2.0662 -4.6959,4.6959 v 61.986 c 0,2.6297 2.0662,4.6959 4.6959,4.6959 2.6297,0 4.6958,-2.0662 4.6958,-4.6959 z"
       fill="#2a2a2a"
       id="path159" />
    <path
       d="M 250.05,31.601 V 21.082 c -2.9115,0 -5.2594,2.348 -5.2594,5.2594 0,2.9114 2.3479,5.2594 5.2594,5.2594 z"
       fill="#dcbb48"
       id="path161" />
    <path
       d="m 253.25,12.818 h -7.5134 c -0.5635,0 -0.9392,0.3756 -0.9392,0.9391 0,0.5636 0.3757,0.9392 0.9392,0.9392 h 7.5134 c 0.5635,0 0.9391,-0.3756 0.9391,-0.9392 0,-0.5635 -0.3756,-0.9391 -0.9391,-0.9391 z"
       fill="#008aff"
       id="path163" />
    <path
       d="m 235.4,63.533 c 2.6297,0 4.6959,-2.0662 4.6959,-4.6959 0,-2.6297 -2.0662,-4.6959 -4.6959,-4.6959 -2.6297,0 -4.6959,2.0662 -4.6959,4.6959 0,2.6297 2.0662,4.6959 4.6959,4.6959 z"
       fill="#44003b"
       id="path165" />
    <path
       d="M 240.1,100.25 V 70.102 c 0,-2.6297 -2.0662,-4.6959 -4.6959,-4.6959 -2.6297,0 -4.6959,2.0662 -4.6959,4.6959 v 30.054 c 0,2.6297 1.9723,4.6959 4.602,4.6959 2.6297,0.0939 4.7898,-1.9723 4.7898,-4.602 z"
       fill="#2a2a2a"
       id="path167" />
    <path
       d="m 239.16,12.818 h -7.5134 c -0.5635,0 -0.9392,0.3756 -0.9392,0.9391 0,0.5636 0.3757,0.9392 0.9392,0.9392 h 7.5134 c 0.5635,0 0.9392,-0.3756 0.9392,-0.9392 0,-0.5635 -0.3757,-0.9391 -0.9392,-0.9391 z"
       fill="#008aff"
       id="path169" />
    <path
       d="M 226.01,100.16 V 38.174 c 0,-2.6297 -2.0662,-4.6959 -4.6959,-4.6959 -2.6297,0 -4.6959,2.0662 -4.6959,4.6959 v 61.986 c 0,2.6297 2.0662,4.6959 4.6959,4.6959 2.6297,0 4.6959,-2.0662 4.6959,-4.6959 z"
       fill="#2a2a2a"
       id="path171" />
    <path
       d="M 196.9,100.25 V 81.373 c 0,-2.6297 -2.0662,-4.6959 -4.6959,-4.6959 -2.6297,0 -4.6958,2.0662 -4.6958,4.6959 v 18.784 c 0,2.6297 1.9722,4.6959 4.6019,4.6959 2.6297,0.0939 4.7898,-1.9723 4.7898,-4.602 z m 0.9392,11.176 c 0,2.6297 1.9723,4.6959 4.602,4.6959 2.6296,0.0939 4.7898,-1.9723 4.7898,-4.602 v -30.148 c 0,-2.6297 -2.0662,-4.6959 -4.6959,-4.6959 -2.6297,0 -4.6959,2.0662 -4.6959,4.6959 z"
       fill="#575757"
       id="path173" />
    <path
       d="m 201.12,12.818 h -7.5134 c -0.5635,0 -0.9392,0.3756 -0.9392,0.9391 0,0.5636 0.3757,0.9392 0.9392,0.9392 h 7.5134 c 0.5635,0 0.9392,-0.3756 0.9392,-0.9392 0,-0.5635 -0.3757,-0.9391 -0.9392,-0.9391 z"
       fill="#008aff"
       id="path175" />
    <path
       d="M 178.11,100.16 V 38.174 c 0,-2.6297 -2.0662,-4.6959 -4.6959,-4.6959 -2.6297,0 -4.6959,2.0662 -4.6959,4.6959 v 61.986 c 0,2.6297 2.0662,4.6959 4.6959,4.6959 2.6297,0 4.6959,-2.0662 4.6959,-4.6959 z m -19.723,0 c 0,2.6297 2.0662,4.6959 4.6959,4.6959 2.6297,0 4.6959,-2.0662 4.6959,-4.6959 V 38.174 c 0,-2.6297 -2.0662,-4.6959 -4.6959,-4.6959 -2.6297,0 -4.6959,2.0662 -4.6959,4.6959 z"
       fill="#2a2a2a"
       id="path177" />
    <path
       d="m 177.17,12.818 h -7.5134 c -0.5635,0 -0.9392,0.3756 -0.9392,0.9391 0,0.5636 0.3757,0.9392 0.9392,0.9392 h 7.5134 c 0.5635,0 0.9392,-0.3756 0.9392,-0.9392 0,-0.5635 -0.3757,-0.9391 -0.9392,-0.9391 z"
       fill="#008aff"
       id="path179" />
    <path
       d="m 123.64,63.533 c 2.6297,0 4.6959,-2.0662 4.6959,-4.6959 0,-2.6297 -2.0662,-4.6959 -4.6959,-4.6959 -2.6297,0 -4.6959,2.0662 -4.6959,4.6959 0,2.6297 2.0662,4.6959 4.6959,4.6959 z m 5.6351,-4.6959 c 0,2.6297 2.0662,4.6959 4.6958,4.6959 2.6297,0 4.6959,-2.0662 4.6959,-4.6959 0,-2.6297 -2.0662,-4.6959 -4.6959,-4.6959 -2.6296,0 -4.6958,2.0662 -4.6958,4.6959 z m 10.331,0 c 0,2.6297 2.0662,4.6959 4.6959,4.6959 2.6297,0 4.6959,-2.0662 4.6959,-4.6959 0,-2.6297 -2.0662,-4.6959 -4.6959,-4.6959 -2.6297,0 -4.6959,2.0662 -4.6959,4.6959 z"
       fill="#44003b"
       id="path181" />
    <path
       d="M 128.34,100.25 V 70.102 c 0,-2.6297 -2.0662,-4.6959 -4.6959,-4.6959 -2.6297,0 -4.6959,2.0662 -4.6959,4.6959 v 30.054 c 0,2.6297 1.9723,4.6959 4.602,4.6959 2.6297,0.0939 4.7898,-1.9723 4.7898,-4.602 z m 0.9392,-0.0939 c 0,2.6297 1.9722,4.6959 4.6019,4.6959 2.6297,0.0939 4.7898,-1.9723 4.7898,-4.602 V 70.102 c 0,-2.6297 -2.0662,-4.6959 -4.6959,-4.6959 -2.6296,0 -4.6958,2.0662 -4.6958,4.6959 z m 10.331,0 c 0,2.6297 1.9723,4.6959 4.602,4.6959 2.6297,0.0939 4.7898,-1.9723 4.7898,-4.602 V 70.102 c 0,-2.6297 -2.0662,-4.6959 -4.6959,-4.6959 -2.6297,0 -4.6959,2.0662 -4.6959,4.6959 z"
       fill="#2a2a2a"
       id="path183" />
    <path
       d="m 137.73,12.818 h -7.5135 c -0.5635,0 -0.9391,0.3756 -0.9391,0.9391 0,0.5636 0.3756,0.9392 0.9391,0.9392 h 7.5135 c 0.5635,0 0.9391,-0.3756 0.9391,-0.9392 0,-0.5635 -0.3756,-0.9391 -0.9391,-0.9391 z"
       fill="#008aff"
       id="path185" />
    <path
       d="m 109.55,126.46 c 2.6297,0 4.6959,-2.0662 4.6959,-4.6958 0,-2.6297 -2.0662,-4.6959 -4.6959,-4.6959 -2.6297,0 -4.6959,2.0662 -4.6959,4.6959 0,2.6296 2.0662,4.6958 4.6959,4.6958 z m -4.6959,-15.027 c 0,2.6297 2.0662,4.6959 4.6959,4.6959 2.6297,0 4.6959,-2.0662 4.6959,-4.6959 0,-2.6297 -2.0662,-4.6959 -4.6959,-4.6959 -2.6297,0 -4.6959,2.0662 -4.6959,4.6959 z"
       fill="#44003b"
       id="path187" />
    <path
       d="M 114.25,100.25 V 70.102 c 0,-2.6297 -2.0662,-4.6959 -4.6959,-4.6959 -2.6297,0 -4.6959,2.0662 -4.6959,4.6959 v 30.054 c 0,2.6297 1.9723,4.6959 4.602,4.6959 2.6297,0.0939 4.7898,-1.9723 4.7898,-4.602 z"
       fill="#2a2a2a"
       id="path189" />
    <path
       d="m 110.96,12.818 h -2.8175 c -0.5635,0 -0.9392,0.3756 -0.9392,0.9391 0,0.5636 0.3757,0.9392 0.9392,0.9392 h 2.8175 c 0.5635,0 0.9392,-0.3756 0.9392,-0.9392 0,-0.5635 -0.3757,-0.9391 -0.9392,-0.9391 z m -3.7567,-1.8784 c 0,0.5635 0.3757,0.9392 0.9392,0.9392 h 2.8175 c 0.5635,0 0.9392,-0.3757 0.9392,-0.9392 0,-0.5635 -0.3757,-0.9392 -0.9392,-0.9392 h -2.8175 c -0.5635,0 -0.9392,0.3757 -0.9392,0.9392 z"
       fill="#008aff"
       id="path191" />
    <path
       d="M 100.72,104.86 V 94.341 c -2.9114,0 -5.2594,2.348 -5.2594,5.2594 0,2.9115 2.348,5.2594 5.2594,5.2594 z"
       fill="#dcbb48"
       id="path193" />
    <path
       d="m 103.92,12.818 h -7.5134 c -0.5635,0 -0.9392,0.3756 -0.9392,0.9391 0,0.5636 0.3757,0.9392 0.9392,0.9392 h 7.5134 c 0.5635,0 0.9392,-0.3756 0.9392,-0.9392 0,-0.5635 -0.3757,-0.9391 -0.9392,-0.9391 z"
       fill="#008aff"
       id="path195" />
    <path
       d="m 71.046,72.925 c 2.6297,0 4.6959,-2.0662 4.6959,-4.6959 0,-2.6297 -2.0662,-4.6958 -4.6959,-4.6958 -2.6297,0 -4.6959,2.0661 -4.6959,4.6958 0,2.6297 2.0662,4.6959 4.6959,4.6959 z"
       fill="#44003b"
       id="path197" />
    <path
       d="m 86.073,100.25 v -9.4856 c 0,-2.6297 -2.0662,-4.6959 -4.6959,-4.6959 -2.6297,0 -4.6959,2.0662 -4.6959,4.6959 v 9.3917 c 0,2.6297 1.9723,4.6959 4.602,4.6959 2.6297,0.0939 4.7898,-1.9723 4.7898,-4.602 z M 66.35,100.1561 c 0,2.6297 1.9723,4.6959 4.602,4.6959 2.6296,0.0939 4.7898,-1.9723 4.7898,-4.602 V 79.494 c 0,-2.6296 -2.0662,-4.6958 -4.6959,-4.6958 -2.6297,0 -4.6959,2.0662 -4.6959,4.6958 z"
       fill="#2a2a2a"
       id="path199" />
    <path
       d="m 74.803,12.818 h -7.5134 c -0.5635,0 -0.9392,0.3756 -0.9392,0.9391 0,0.5636 0.3757,0.9392 0.9392,0.9392 h 7.5134 c 0.5635,0 0.9392,-0.3756 0.9392,-0.9392 0,-0.5635 -0.3757,-0.9391 -0.9392,-0.9391 z"
       fill="#008aff"
       id="path201" />
    <path
       d="m 56.959,126.46 c 2.6297,0 4.6959,-2.0662 4.6959,-4.6958 0,-2.6297 -2.0662,-4.6959 -4.6959,-4.6959 -2.6297,0 -4.6958,2.0662 -4.6958,4.6959 0,2.6296 2.0661,4.6958 4.6958,4.6958 z m -4.6958,-15.027 c 0,2.6297 2.0661,4.6959 4.6958,4.6959 2.6297,0 4.6959,-2.0662 4.6959,-4.6959 0,-2.6297 -2.0662,-4.6959 -4.6959,-4.6959 -2.6297,0 -4.6958,2.0662 -4.6958,4.6959 z"
       fill="#44003b"
       id="path203" />
    <path
       d="M 61.655,100.25 V 70.102 c 0,-2.6297 -2.0662,-4.6959 -4.6959,-4.6959 -2.6297,0 -4.6958,2.0662 -4.6958,4.6959 v 30.054 c 0,2.6297 1.9722,4.6959 4.6019,4.6959 2.6297,0.0939 4.7898,-1.9723 4.7898,-4.602 z"
       fill="#2a2a2a"
       id="path205" />
    <path
       d="m 58.368,12.818 h -2.8175 c -0.5635,0 -0.9392,0.3756 -0.9392,0.9391 0,0.5636 0.3757,0.9392 0.9392,0.9392 h 2.8175 c 0.5635,0 0.9392,-0.3756 0.9392,-0.9392 0,-0.5635 -0.3757,-0.9391 -0.9392,-0.9391 z m -3.7567,-1.8784 c 0,0.5635 0.3757,0.9392 0.9392,0.9392 h 2.8175 c 0.5635,0 0.9392,-0.3757 0.9392,-0.9392 0,-0.5635 -0.3757,-0.9392 -0.9392,-0.9392 h -2.8175 c -0.5635,0 -0.9392,0.3757 -0.9392,0.9392 z"
       fill="#008aff"
       id="path207" />
    <path
       d="M 47.567,111.52 V 81.372 c 0,-2.6297 -2.0662,-4.6959 -4.6959,-4.6959 -2.6297,0 -4.6959,2.0662 -4.6959,4.6959 v 30.054 c 0,2.6297 1.9723,4.6959 4.602,4.6959 2.6297,0.0939 4.7898,-1.9723 4.7898,-4.602 z"
       fill="#2a2a2a"
       id="path209" />
    <path
       d="m 46.628,12.818 h -7.5134 c -0.5635,0 -0.9392,0.3756 -0.9392,0.9391 0,0.5636 0.3757,0.9392 0.9392,0.9392 h 7.5134 c 0.5635,0 0.9392,-0.3756 0.9392,-0.9392 0,-0.5635 -0.3757,-0.9391 -0.9392,-0.9391 z"
       fill="#008aff"
       id="path211" />
    <path
       d="m 28.784,63.533 c 2.6297,0 4.6958,-2.0662 4.6958,-4.6959 0,-2.6297 -2.0661,-4.6959 -4.6958,-4.6959 -2.6297,0 -4.6959,2.0662 -4.6959,4.6959 0,2.6297 2.0662,4.6959 4.6959,4.6959 z"
       fill="#44003b"
       id="path213" />
    <path
       d="M 33.479,100.25 V 70.102 c 0,-2.6297 -2.0661,-4.6959 -4.6958,-4.6959 -2.6297,0 -4.6959,2.0662 -4.6959,4.6959 v 30.054 c 0,2.6297 1.9723,4.6959 4.602,4.6959 2.6296,0.0939 4.7897,-1.9723 4.7897,-4.602 z"
       fill="#2a2a2a"
       id="path215" />
    <path
       d="m 32.54,12.818 h -7.5134 c -0.5635,0 -0.9392,0.3756 -0.9392,0.9391 0,0.5636 0.3757,0.9392 0.9392,0.9392 H 32.54 c 0.5635,0 0.9391,-0.3756 0.9391,-0.9392 0,-0.5635 -0.3756,-0.9391 -0.9391,-0.9391 z"
       fill="#008aff"
       id="path217" />
    <path
       d="M 19.392,100.16 V 38.174 c 0,-2.6297 -2.0662,-4.6959 -4.6959,-4.6959 -2.6297,0 -4.6958,2.0662 -4.6958,4.6959 v 61.986 c 0,2.6297 2.0661,4.6959 4.6958,4.6959 2.6297,0 4.6959,-2.0662 4.6959,-4.6959 z"
       fill="#2a2a2a"
       id="path219" />
    <g
       stroke-width="93.918"
       id="g233">
      <path
         d="M 288,100.16"
         id="path221" />
      <path
         d="M 258.88,100.16"
         id="path223" />
      <path
         d="M 211.92,100.16"
         id="path225" />
      <path
         d="M 182.81,100.16"
         id="path227" />
      <path
         d="M 153.69,100.16"
         id="path229" />
      <path
         d="M 90.769,100.16"
         id="path231" />
    </g>
  </g>
  <text
     xml:space="preserve"
     style="font-size:17.0173px;line-height:1.25;font-family:Amiri;-inkscape-font-specification:'Amiri, Normal';direction:rtl;stroke-width:0.0988648"
     x="105.20065"
     y="350.41806"
     id="text3620"><tspan
       sodipodi:role="line"
       id="tspan3618"
       x="105.20065"
       y="350.41806"
       style="font-style:normal;font-variant:normal;font-weight:normal;font-stretch:normal;font-family:Anti;-inkscape-font-specification:Anti;stroke-width:0.0988648">خالد حسني ١٤٤٢ ه</tspan></text>
</svg>
